<svg width="1366" height="609" viewBox="0 0 1366 609" fill="none" xmlns="http://www.w3.org/2000/svg">
<path d="M0.700195 437.582L32.9806 393.795C61.3316 416.172 89.2595 430.506 124.018 430.506C161.618 430.506 179.693 411.878 179.693 387.929C179.693 358.778 143.725 345.835 108.966 332.651C65.7444 316.564 16.5986 293.038 16.5986 239.03C16.5986 185.023 60.3644 144.441 131.695 144.441C174.857 144.441 210.522 162.041 236.274 182.18L204.659 224.636C182.232 208.125 159.563 196.332 133.146 196.332C97.9038 196.332 81.401 213.931 81.401 235.643C81.401 262.919 114.769 273.261 150.193 286.385C194.745 303.077 244.556 323.337 244.556 383.877C244.556 438.126 201.576 482.396 122.144 482.396C77.5322 482.396 31.8924 463.346 0.821121 437.582" fill="#18181B"/>
<path d="M303.316 602.452L316.071 549.17C322.297 551.105 331.788 553.766 339.647 553.766C374.345 553.766 395.14 528.547 406.806 493.59L413.275 472.12L285.725 152.309H355.182L414.302 317.355C424.156 345.719 433.888 377.894 443.681 408.254H446.341C454.804 378.559 463.267 346.385 471.851 317.355L523.112 152.309H589.245L471.125 493.227C445.797 562.777 412.126 608.923 343.878 608.923C327.194 608.923 314.681 606.322 303.376 602.331" fill="#18181B"/>
<path d="M671.816 112.926C671.816 46.5806 702.162 0.253906 774.218 0.253906C796.222 0.253906 816.836 5.57603 831.283 11.4425L817.863 62.7284C806.075 57.5272 793.623 54.8662 782.439 54.8662C754.391 54.8662 740.004 73.3122 740.004 112.139V474.467H671.816V112.926ZM628.413 155.684L675.262 152.358H804.806V206.97H628.413V155.684Z" fill="#18181B"/>
<path d="M876.078 152.364H932.115L937.495 210.242H939.49C962.279 168.633 995.95 144.441 1031.01 144.441C1046.67 144.441 1056.88 146.437 1066.74 151.034L1054.65 210.424C1043.46 207.158 1035.42 205.162 1022.25 205.162C996.01 205.162 964.576 223.427 944.326 274.41V474.474H876.138V152.364H876.078Z" fill="#18181B"/>
<path d="M1306 284.391C1306 229.597 1281.52 197.725 1235.27 197.725C1195.07 197.725 1159.47 228.69 1152.88 284.391H1305.94H1306ZM1086.81 313.784C1086.81 209.035 1158.74 144.504 1233.94 144.504C1319.3 144.504 1365.3 206.071 1365.3 296.85C1365.3 310.276 1363.91 323.642 1362.28 331.565H1153.54C1158.98 392.588 1197.43 429.177 1252.68 429.177C1281.4 429.177 1305.58 420.045 1329.27 404.986L1352.85 448.046C1323.05 468.004 1285.81 482.398 1243.86 482.398C1156.02 482.398 1086.81 419.863 1086.81 313.784Z" fill="#18181B"/>
</svg>
