<svg width="99" height="36" viewBox="0 0 99 36" fill="none" xmlns="http://www.w3.org/2000/svg">
<g clip-path="url(#clip0_108_1975)">
<path d="M42.4937 23.0956L43.8303 21.2825C45.0043 22.2091 46.1608 22.8026 47.6001 22.8026C49.1571 22.8026 49.9055 22.0313 49.9055 21.0395C49.9055 19.8324 48.4161 19.2965 46.9768 18.7506C45.1871 18.0844 43.152 17.1102 43.152 14.8738C43.152 12.6374 44.9643 10.957 47.918 10.957C49.7053 10.957 51.1821 11.6858 52.2485 12.5197L50.9393 14.2778C50.0106 13.5941 49.072 13.1058 47.9781 13.1058C46.5187 13.1058 45.8354 13.8345 45.8354 14.7336C45.8354 15.863 47.2171 16.2913 48.684 16.8347C50.5288 17.5259 52.5914 18.3649 52.5914 20.8717C52.5914 23.1181 50.8117 24.9513 47.5225 24.9513C45.6752 24.9513 43.7853 24.1625 42.4987 23.0956" fill="white"/>
<path d="M55.0244 29.9211L55.5526 27.7148C55.8104 27.7949 56.2034 27.9051 56.5288 27.9051C57.9657 27.9051 58.8267 26.8608 59.3099 25.4133L59.5777 24.5242L54.296 11.2812H57.1722L59.6202 18.1156C60.0283 19.2902 60.4313 20.6225 60.8368 21.8797H60.9469C61.2974 20.65 61.6478 19.3177 62.0033 18.1156L64.1259 11.2812H66.8644L61.9732 25.3983C60.9244 28.2783 59.5301 30.1891 56.7041 30.1891C56.0132 30.1891 55.495 30.0814 55.0269 29.9161" fill="white"/>
<path d="M70.2837 9.65193C70.2837 6.90466 71.5403 4.98633 74.5241 4.98633C75.4352 4.98633 76.2888 5.20671 76.8871 5.44963L76.3314 7.57332C75.8432 7.35795 75.3276 7.24775 74.8645 7.24775C73.703 7.24775 73.1073 8.01158 73.1073 9.61937V24.6229H70.2837V9.65193ZM68.4865 11.4225L70.4264 11.2848H75.7907V13.5462H68.4865V11.4225Z" fill="white"/>
<path d="M78.7419 11.2851H81.0624L81.2852 13.6818H81.3678C82.3114 11.9588 83.7057 10.957 85.1575 10.957C85.8059 10.957 86.2289 11.0397 86.6369 11.23L86.1363 13.6893C85.6732 13.554 85.3403 13.4714 84.7946 13.4714C83.7082 13.4714 82.4066 14.2277 81.568 16.3389V24.6233H78.7444V11.2851H78.7419Z" fill="white"/>
<path d="M96.5444 16.7515C96.5444 14.4826 95.5306 13.1628 93.6157 13.1628C91.9511 13.1628 90.4767 14.445 90.2038 16.7515H96.5419H96.5444ZM87.4679 17.9687C87.4679 13.6311 90.4467 10.959 93.5606 10.959C97.0951 10.959 99 13.5084 99 17.2674C99 17.8234 98.9424 18.3769 98.8748 18.7049H90.2314C90.4567 21.2318 92.0487 22.747 94.3366 22.747C95.5256 22.747 96.5268 22.3688 97.5081 21.7452L98.4843 23.5283C97.2503 24.3547 95.7083 24.9508 93.9711 24.9508C90.334 24.9508 87.4679 22.3613 87.4679 17.9687Z" fill="white"/>
<path d="M16.8388 31.4221C13.8701 31.407 11.4645 30.5706 9.27427 28.795L9.12658 28.6748L11.5722 25.2263C9.51457 23.4006 8.33058 20.7961 8.31556 18.0488V17.573L8.67101 17.9111C9.24423 18.4495 9.89505 18.9579 10.6135 19.4312L10.6835 19.4763L10.7011 19.559C11.4295 22.9674 14.4858 25.4392 17.9702 25.4392C18.5034 25.4392 19.0441 25.3791 19.5723 25.2639L19.8802 25.1962L19.8151 25.5068C19.5573 26.7314 18.4083 27.4627 16.7487 27.4627C16.3081 27.4627 15.8451 27.4101 15.377 27.3074C14.8138 27.1496 14.2706 26.9418 13.7474 26.6863L12.616 28.2966C13.8601 28.8877 15.2493 29.1807 16.8513 29.1882H16.8914C19.1993 29.1882 21.5648 27.9034 21.6524 25.0285C21.725 22.6694 19.3545 21.5149 16.0003 20.1425C13.9702 19.3286 11.6548 18.2742 9.89255 16.6239C8.7486 15.552 7.94759 14.3023 7.50453 12.9049C6.73356 14.4851 6.32805 16.2357 6.32805 17.9987C6.32805 20.6959 7.27675 23.328 8.99892 25.4116L9.11907 25.5569L7.52456 27.1121L7.38438 26.9443C5.27171 24.4449 4.10774 21.2669 4.10774 17.9987C4.10774 14.7306 5.1816 11.808 7.12906 9.36125C7.22418 8.0615 7.53207 6.8519 8.05022 5.75249C4.68097 8.48724 2.58332 12.4641 2.25541 16.7967L2.24039 16.9845H0.0125732L0.0275922 16.7666C0.335481 12.2488 2.31047 8.04146 5.59462 4.91854C8.92883 1.74803 13.3219 0 17.9627 0C27.4022 0.00751304 35.2846 7.3728 35.9229 16.7691L35.9379 16.987H33.7126L33.6976 16.7992C33.4022 12.8999 31.6675 9.26108 28.8139 6.55388C25.9478 3.83666 22.2031 2.3015 18.2681 2.22887C12.9814 2.25642 9.47202 5.27917 9.33184 9.92723C9.20418 14.1421 12.238 16.2307 16.8363 18.0714C20.0329 19.3786 24.0054 21.004 23.8827 25.0961C23.8301 26.7965 23.1543 28.3667 21.9778 29.5162C20.6987 30.7634 18.939 31.4221 16.8889 31.4221H16.8363H16.8388Z" fill="white"/>
<path d="M2.05014 16.7819C2.41561 11.9435 4.9463 7.70365 8.6685 5.024C7.90504 6.29871 7.43695 7.78629 7.32681 9.44167C5.43942 11.7857 4.3105 14.7634 4.3105 18.0015C4.3105 21.2396 5.52703 24.4327 7.53958 26.8143L8.84372 25.5421C7.14908 23.4911 6.12529 20.864 6.12529 18.0015C6.12529 15.958 6.64595 14.0346 7.5621 12.3542C7.95009 13.9169 8.77614 15.2993 10.0327 16.4764C11.7699 18.1042 14.0653 19.1485 16.0779 19.9549C19.5097 21.3574 21.9327 22.5444 21.8552 25.0362C21.7901 27.21 20.2281 29.3938 16.8914 29.3938H16.8513C15.1367 29.3838 13.6673 29.0632 12.3131 28.3745L13.6823 26.4237C14.233 26.7041 14.8138 26.9345 15.4195 27.1048C17.417 27.5456 19.2844 27.0297 19.6148 25.462C19.0842 25.5797 18.536 25.6423 17.9702 25.6423C14.3081 25.6423 11.2392 23.0478 10.5008 19.6018C9.81245 19.1485 9.15161 18.6426 8.53834 18.0691C8.53083 18.0616 8.52582 18.0566 8.51831 18.0491C8.53333 20.9066 9.81996 23.466 11.8425 25.194L11.8325 25.209L9.40193 28.64C11.5697 30.3955 13.9352 31.207 16.8413 31.222H16.8914C18.8864 31.222 20.5961 30.5834 21.8376 29.3738C22.9766 28.2618 23.6324 26.7417 23.6825 25.0938C23.8026 21.1445 19.9027 19.5492 16.7637 18.2645C12.0878 16.3912 9.00142 14.2575 9.13159 9.92501C9.27677 5.1392 12.8588 2.05634 18.2756 2.0288C26.5386 2.18156 33.2871 8.64028 33.9054 16.7869H35.7252C35.0919 7.53586 27.3746 0.210641 17.9753 0.203128C8.38314 0.198119 0.85113 7.64605 0.230347 16.7819H2.05014Z" fill="white"/>
<path d="M17.9752 35.9992C14.7411 35.9992 11.5646 35.1252 8.7911 33.4673C7.94253 32.9764 7.13651 32.4004 6.39808 31.7618L6.34802 31.7193C2.59077 28.5287 0.282857 23.9007 0.0125158 19.0072L0 18.7918H2.22531L2.23783 18.9821C2.51317 23.4374 4.69092 27.5921 8.21287 30.3769C10.5708 32.2276 13.5321 33.282 16.5509 33.3471C16.661 33.3496 16.7712 33.3521 16.8813 33.3521C19.7424 33.3521 21.9527 32.5232 23.8376 30.7451C25.4471 29.2274 26.3733 27.1088 26.4434 24.7797C26.5936 19.7986 22.7462 17.8452 18.4433 16.1247C15.2743 14.8775 11.6797 13.4626 11.7949 9.6234C11.8425 8.05067 12.4282 6.69581 13.492 5.7091C14.6185 4.66228 16.2105 4.11133 18.0953 4.11133C18.1479 4.11133 18.2005 4.11133 18.2556 4.11133C22.2931 4.17895 25.2068 5.94702 26.939 7.41707L27.0817 7.53728L24.6311 10.9983C26.148 12.4483 27.1643 14.3716 27.5022 16.4302L27.6024 17.0388L27.0967 16.5454C27.0542 16.5028 27.0091 16.4603 26.964 16.4177C26.2982 15.8016 25.5473 15.2381 24.6661 14.6922L24.6186 14.6621L24.5936 14.6121C23.3094 12.1102 20.7737 10.5575 17.9752 10.5575C17.4796 10.5575 16.9814 10.6076 16.4958 10.7053L16.4358 10.7178L16.3782 10.6953C15.9151 10.5049 15.6773 10.0391 15.7574 9.47815C15.84 8.90966 16.213 8.47891 16.666 8.43133C17.1366 8.3587 17.4821 8.33366 17.9752 8.33366C19.5572 8.33366 21.1242 8.72684 22.5184 9.47314L23.6699 7.83279C22.3057 7.06395 20.8263 6.58562 19.2693 6.41533C19.2393 6.41282 18.9639 6.38277 18.5559 6.38277C17.805 6.38277 16.7136 6.48044 15.7799 6.94124C14.676 7.48719 14.0878 8.4138 14.0302 9.69102C13.9451 11.6319 15.5046 12.5635 19.2693 14.0461C23.372 15.6839 27.7726 17.8502 28.5586 22.8564C29.2569 21.3362 29.6249 19.6708 29.6249 17.9954C29.6249 15.3809 28.7738 12.9066 27.1618 10.8405L27.0492 10.6978L28.6487 9.13755L28.7889 9.31286C30.7613 11.7671 31.8477 14.85 31.8477 17.9954C31.8477 21.3863 30.6061 24.652 28.3533 27.1939C27.9603 28.7691 27.2244 30.2192 26.2006 31.4513C30.5561 28.7766 33.3972 24.1085 33.7151 18.9796L33.7276 18.7893H35.9529L35.9404 19.0047C35.4122 28.5312 27.5223 35.9942 17.9777 35.9942" fill="white"/>
<path d="M33.9129 18.9977C33.5524 24.8103 30.0755 29.7914 25.1343 32.2808C25.1468 32.2682 25.1618 32.2582 25.1743 32.2457C26.6612 30.8433 27.6825 29.0652 28.1631 27.1018C30.3233 24.6826 31.64 21.492 31.64 18.001C31.64 14.7654 30.5111 11.7902 28.6262 9.44612L27.3196 10.7208C28.889 12.7318 29.8277 15.2587 29.8277 18.001C29.8277 20.0095 29.3246 21.9027 28.4385 23.5631C27.9704 18.2113 23.4597 15.9474 19.1943 14.242C15.3569 12.7318 13.7349 11.7626 13.825 9.68905C13.9977 5.75221 18.8939 6.17545 19.2894 6.22052C20.979 6.40835 22.5635 6.95179 23.9628 7.77572L22.5786 9.74665C21.2143 8.98282 19.6449 8.54456 17.9728 8.54456C17.4846 8.54456 17.1517 8.5696 16.6836 8.64223C15.9402 8.71986 15.5797 10.1574 16.4533 10.513C16.944 10.4128 17.4521 10.3602 17.9728 10.3602C20.934 10.3602 23.5047 12.0557 24.7713 14.5249C25.5974 15.0358 26.3809 15.6118 27.0993 16.2755C27.1694 16.3406 27.2344 16.4057 27.2995 16.4708C26.9516 14.3421 25.8802 12.4338 24.3608 11.0314L26.8064 7.57788C24.909 5.96759 22.0053 4.38233 18.2531 4.31972C16.3357 4.28717 14.7362 4.83812 13.6323 5.8624C12.611 6.81155 12.0453 8.11381 12.0002 9.63145C11.8876 13.3279 15.4145 14.7153 18.5209 15.9374C22.8915 17.6829 26.8039 19.6764 26.6487 24.7878C26.5761 27.1519 25.665 29.3056 23.9803 30.8934C22.133 32.6339 19.8802 33.6231 16.5485 33.553C13.4696 33.4879 10.4432 32.3885 8.09027 30.5402C4.63091 27.8055 2.328 23.6708 2.03763 18.9977H0.215332C0.495686 24.049 2.89121 28.5418 6.5283 31.6096C7.26674 32.2482 8.06024 32.8092 8.89379 33.295C11.5546 34.8828 14.6586 35.7969 17.9753 35.7969C27.4497 35.7969 35.2145 28.3489 35.7352 19.0002H33.9154L33.9129 18.9977Z" fill="white"/>
</g>
<defs>
<clipPath id="clip0_108_1975">
<rect width="99" height="36" fill="white"/>
</clipPath>
</defs>
</svg>
