<svg width="282" height="53" viewBox="0 0 282 53" fill="none" xmlns="http://www.w3.org/2000/svg">
<g clip-path="url(#clip0_7795_12301)">
<path fill-rule="evenodd" clip-rule="evenodd" d="M127.236 43.309C123.666 43.309 121.156 42.589 119.486 41.339C117.486 42.489 114.986 43.309 112.136 43.309C107.436 43.309 105.846 41.289 106.576 37.129L107.646 31.199C108.206 27.889 107.136 26.519 104.866 26.519C101.706 26.519 99.0056 29.649 98.4956 32.699V32.609L96.8056 42.309C96.7756 42.509 96.5956 42.659 96.3856 42.659H92.4556C92.1956 42.659 91.9956 42.419 92.0356 42.169L92.6856 38.449C89.3656 41.259 84.3356 43.309 79.0356 43.309C72.4056 43.309 66.7656 39.789 66.7656 31.289C66.7656 22.789 72.1956 14.709 81.2556 14.709C86.5556 14.709 90.2756 17.199 90.2756 21.669C90.2756 22.649 89.7456 24.279 89.5156 24.919C89.4556 25.089 89.3056 25.189 89.1256 25.189H85.3456C85.0756 25.189 84.8656 24.929 84.9356 24.659C85.0956 23.969 85.3656 22.779 85.3656 22.309C85.3656 19.349 82.8856 18.699 80.8356 18.699C74.9756 18.699 72.0756 25.229 72.0756 30.849C72.0756 36.469 75.1556 39.009 79.8556 39.009C84.5556 39.009 90.3356 36.679 93.7756 32.209L96.9356 14.059C96.9756 13.859 97.1456 13.709 97.3556 13.709H101.286C101.546 13.709 101.746 13.949 101.706 14.199L99.7356 25.469C101.356 23.489 103.886 22.289 106.746 22.289C111.026 22.289 113.586 24.649 112.606 30.279L111.576 35.909C111.186 38.139 111.616 39.129 113.926 39.129C115.136 39.129 116.246 38.829 117.246 38.379C116.836 37.319 116.656 36.129 116.656 34.839C116.656 28.359 121.186 22.299 128.246 22.299C132.566 22.299 135.296 24.529 135.296 27.749C135.296 32.689 129.736 35.219 123.496 35.219C122.896 35.219 122.346 35.219 121.746 35.179C122.126 38.359 124.016 39.429 128.376 39.429C131.456 39.429 134.996 38.429 137.786 36.809C137.696 36.259 137.656 35.689 137.656 35.089C137.656 28.129 141.886 22.289 148.606 22.289C152.626 22.289 155.276 24.349 155.276 27.789C155.276 28.359 154.996 29.389 154.856 29.899C154.806 30.079 154.646 30.199 154.456 30.199H150.586C150.296 30.199 150.086 29.909 150.176 29.629C150.316 29.179 150.496 28.579 150.496 28.229C150.496 26.809 149.646 25.999 148.146 25.999C145.106 25.999 142.676 29.439 142.676 34.459C142.676 37.979 144.816 39.359 148.666 39.359C152.516 39.359 155.646 38.119 158.346 36.409L162.236 14.079C162.276 13.879 162.446 13.729 162.656 13.729H166.586C166.846 13.729 167.046 13.969 167.006 14.219L165.546 22.749C165.336 24.079 164.986 25.629 164.566 26.999C166.316 23.909 169.096 22.319 172.346 22.319C175.596 22.319 177.736 24.039 177.686 26.829C177.596 30.049 174.996 32.629 170.846 34.299C171.486 36.919 173.066 39.019 175.846 39.069C177.386 39.069 179.006 38.719 180.436 38.149L183.006 23.319C183.036 23.119 183.216 22.969 183.426 22.969H187.086C187.356 22.969 187.546 23.209 187.496 23.469L186.996 26.019C188.446 23.789 190.976 22.329 193.706 22.329C196.436 22.329 198.576 23.399 199.136 26.239C200.636 23.839 203.286 22.329 206.186 22.329C210.116 22.329 212.556 24.689 211.576 30.319L210.596 35.949C210.166 38.269 210.726 39.169 212.906 39.169C214.116 39.169 215.236 38.869 216.246 38.429C215.906 37.399 215.726 36.209 215.726 34.879C215.726 28.479 219.826 22.339 226.716 22.339C228.806 22.339 230.906 22.979 232.446 24.359C232.676 23.899 232.966 23.509 233.306 23.129C233.386 23.039 233.496 22.989 233.616 22.989H236.606C236.866 22.989 237.066 23.229 237.026 23.479L234.846 35.909C234.416 38.269 235.276 39.169 237.286 39.169C238.806 39.169 240.306 38.699 241.626 37.979C241.596 37.179 241.676 36.279 241.856 35.259L243.396 27.009H241.116C240.856 27.009 240.656 26.779 240.696 26.519L241.236 23.329C241.266 23.129 241.446 22.979 241.656 22.979H244.166L245.216 17.439C245.256 17.239 245.426 17.099 245.626 17.099H249.556C249.816 17.099 250.016 17.339 249.966 17.599L248.946 22.979H254.046C254.306 22.979 254.506 23.219 254.466 23.479L253.896 26.669C253.856 26.869 253.686 27.019 253.476 27.019H248.186L246.686 34.789C246.126 37.839 247.026 39.299 250.666 39.299C252.106 39.299 253.656 38.969 255.106 38.329C254.726 37.299 254.556 36.139 254.556 34.879C254.556 28.399 259.086 22.339 266.146 22.339C270.466 22.339 273.196 24.569 273.196 27.789C273.196 32.729 267.636 35.259 261.396 35.259C260.796 35.259 260.246 35.259 259.646 35.219C260.026 38.399 261.916 39.469 266.276 39.469C269.506 39.469 274.126 36.739 276.016 35.529C276.336 35.329 276.756 35.599 276.686 35.969L276.046 39.499C276.026 39.619 275.956 39.719 275.846 39.779C274.836 40.359 269.406 43.329 265.116 43.329C261.336 43.329 258.756 42.529 257.086 41.149C255.556 42.239 252.536 43.329 248.566 43.329C245.976 43.329 243.966 42.779 242.786 41.399C241.256 42.409 238.716 43.329 235.996 43.329C233.276 43.329 231.036 42.209 230.226 39.979C228.556 42.039 226.296 43.329 223.346 43.329C221.256 43.329 219.496 42.709 218.196 41.529C216.136 42.619 213.836 43.329 211.116 43.329C206.456 43.329 204.876 41.269 205.596 37.149L206.626 31.219C207.186 27.959 206.196 26.539 204.236 26.539C201.586 26.539 199.236 29.719 198.676 32.719L197.066 42.329C197.036 42.529 196.856 42.679 196.646 42.679H192.676C192.416 42.679 192.216 42.439 192.256 42.189L194.136 31.219C194.736 27.609 193.536 26.539 191.786 26.539C189.176 26.539 186.866 29.629 186.226 32.249L184.486 42.339C184.456 42.539 184.276 42.689 184.066 42.689H179.636L179.656 42.599C178.256 43.069 176.706 43.329 175.236 43.329C170.186 43.329 167.716 39.939 166.516 35.599C165.446 35.809 164.336 36.029 163.186 36.159L162.096 42.339C162.056 42.539 161.886 42.689 161.676 42.689H157.746C157.486 42.689 157.286 42.449 157.326 42.199L157.596 40.649C154.766 42.199 151.406 43.339 147.616 43.339C143.146 43.339 140.446 42.049 139.006 40.009C135.986 41.949 131.716 43.339 127.216 43.339L127.236 43.309ZM170.886 25.969C167.556 25.969 165.036 29.249 164.096 32.879C168.156 32.669 172.766 30.349 172.766 27.619C172.766 26.609 172.166 25.979 170.886 25.979V25.969ZM225.066 39.229C227.206 39.229 229.126 37.589 230.406 35.609L231.776 27.739C230.796 26.979 229.386 26.269 227.636 26.269C223.616 26.269 221.056 30.189 221.056 34.519C221.056 37.589 222.376 39.239 225.076 39.239L225.066 39.229ZM260.016 32.199C260.616 28.619 263.096 26.089 265.866 26.089C267.486 26.089 268.386 26.929 268.386 28.199C268.386 30.179 266.376 32.199 260.696 32.199H260.016ZM128.076 26.089C125.296 26.089 122.816 28.619 122.226 32.199H122.906C128.586 32.199 130.596 30.179 130.596 28.199C130.596 26.939 129.696 26.089 128.076 26.089ZM272.736 19.559V18.999H276.056V19.559H274.716V23.289H274.076V19.559H272.736ZM276.786 18.999H277.566L278.926 22.329H278.976L280.336 18.999H281.126V23.289H280.506V20.189H280.466L279.206 23.289H278.696L277.436 20.189H277.396V23.289H276.786V18.999Z" fill="url(#paint0_linear_7795_12301)"/>
<path opacity="0.2" d="M39.2938 0.0897277L17.1861 3.30307C12.5787 3.97275 9.38663 8.25062 10.0563 12.858L13.2696 34.9657C13.9393 39.573 18.2172 42.7651 22.8245 42.0954L44.9322 38.8821C49.5396 38.2124 52.7317 33.9345 52.062 29.3272L48.8487 7.21951C48.179 2.61217 43.9011 -0.579948 39.2938 0.0897277Z" fill="url(#paint1_linear_7795_12301)"/>
<path opacity="0.4" d="M34.3172 5.0741L12.2095 8.28745C7.60218 8.95712 4.41007 13.235 5.07974 17.8423L8.29308 39.95C8.96276 44.5574 13.2406 47.7495 17.848 47.0798L39.9557 43.8665C44.563 43.1968 47.7551 38.9189 47.0855 34.3116L43.8721 12.2039C43.2024 7.59654 38.9246 4.40443 34.3172 5.0741Z" fill="url(#paint2_linear_7795_12301)"/>
<path d="M29.325 10.0604L7.21734 13.2738C2.60999 13.9434 -0.582121 18.2213 0.0875548 22.8287L3.3009 44.9364C3.97057 49.5437 8.24844 52.7358 12.8558 52.0661L34.9635 48.8528C39.5708 48.1831 42.7629 43.9053 42.0933 39.2979L38.8799 17.1902C38.2102 12.5829 33.9324 9.39076 29.325 10.0604Z" fill="url(#paint3_linear_7795_12301)"/>
<path d="M19.2615 37.3794C19.4215 36.9994 19.5715 36.6494 19.7115 36.2994C21.5415 31.8194 23.5815 27.4394 25.7515 23.1294C27.8715 18.9194 30.2815 14.8894 32.7415 10.8694C34.2915 8.3594 36.1015 6.0394 37.8115 3.6394C38.2715 2.9894 38.9815 2.7494 39.6715 2.9494C40.7515 3.2694 41.2015 4.4794 40.5815 5.4394C39.7115 6.7894 38.8215 8.1294 37.9115 9.4694C36.8315 11.0594 35.9115 12.7394 34.9515 14.3994C33.5115 16.8994 32.1515 19.4494 30.9115 22.0494C28.2615 27.5894 25.8415 33.2294 23.7815 39.0094C23.3915 40.1194 23.0015 41.2194 22.6215 42.3294C22.4315 42.8794 22.1615 43.3594 21.7015 43.7294C20.7315 44.4794 19.4715 44.4494 18.5915 43.5894C17.9815 42.9894 17.4415 42.3294 16.8715 41.6894C13.7815 38.1594 10.7015 34.6094 7.62149 31.0794C7.23149 30.6294 6.99149 30.1294 7.12149 29.5294C7.40149 28.2194 8.96149 27.7494 9.96149 28.6794C11.0515 29.6794 12.1115 30.6894 13.1815 31.6994C15.1115 33.5194 17.0515 35.3494 18.9815 37.1694C19.0615 37.2494 19.1415 37.2994 19.2415 37.3894L19.2615 37.3794Z" fill="white"/>
</g>
<defs>
<linearGradient id="paint0_linear_7795_12301" x1="174.236" y1="22.319" x2="172.566" y2="50.419" gradientUnits="userSpaceOnUse">
<stop stop-color="#A75BF3"/>
<stop offset="0.98" stop-color="#5D33BC"/>
</linearGradient>
<linearGradient id="paint1_linear_7795_12301" x1="24.9377" y1="8.03733" x2="39.0344" y2="38.072" gradientUnits="userSpaceOnUse">
<stop stop-color="#A75BF3"/>
<stop offset="0.98" stop-color="#5D33BC"/>
</linearGradient>
<linearGradient id="paint2_linear_7795_12301" x1="19.9512" y1="13.0231" x2="34.0465" y2="43.0479" gradientUnits="userSpaceOnUse">
<stop stop-color="#A75BF3"/>
<stop offset="0.98" stop-color="#5D33BC"/>
</linearGradient>
<linearGradient id="paint3_linear_7795_12301" x1="21.0935" y1="10.7134" x2="21.0935" y2="50.9934" gradientUnits="userSpaceOnUse">
<stop stop-color="#A75BF3"/>
<stop offset="0.98" stop-color="#5D33BC"/>
</linearGradient>
<clipPath id="clip0_7795_12301">
<rect width="281.13" height="52.15" fill="white"/>
</clipPath>
</defs>
</svg>
