<svg width="188" height="26" viewBox="0 0 188 26" fill="none" xmlns="http://www.w3.org/2000/svg">
<g clip-path="url(#clip0_2318_3034)">
<path d="M45.7941 19.2841C43.9453 19.2841 42.585 20.6038 42.585 22.3743C42.585 24.1448 43.9453 25.4991 45.7941 25.4991C47.6428 25.4991 48.9675 24.2148 48.9675 22.3743C48.9675 20.5338 47.6072 19.2841 45.7941 19.2841Z" fill="#00BF6F"/>
<path d="M37.5628 11.2986C35.61 9.66617 34.7025 8.62458 34.7025 7.47939C34.7025 6.12514 35.7834 5.11808 37.2487 5.11808C39.3412 5.11808 40.8759 6.715 41.0156 9.45804L45.5147 7.40939C45.5147 3.3121 42.2362 0.5 37.5628 0.5C32.4356 0.5 29.2275 3.76383 29.2275 7.58299C29.2275 10.1524 30.3787 12.062 32.8894 14.1797C34.9125 15.8812 35.6447 16.8882 35.6447 17.9989C35.6447 19.7003 34.5637 20.7419 32.715 20.7419C30.5522 20.7419 28.8787 19.1795 28.5994 16.7837L24.135 18.8669C24.6581 22.9642 27.9712 25.4991 32.6447 25.4991C37.9462 25.4991 41.2247 22.4088 41.2247 17.8953C41.2247 15.4304 40.1091 13.4163 37.5628 11.2986Z" fill="#00BF6F"/>
<path d="M17.7872 0.916262H10.9509L7.90406 12.7116C6.23437 11.4563 5.03062 9.64284 4.35938 7.30486L0 9.49257C0.957188 13.1372 3.31594 16.0025 6.60938 17.7226L4.70813 25.0828H10.1494L11.6372 19.3223C12.5372 19.4567 13.4728 19.5277 14.4394 19.5277C22.0078 19.5277 26.9606 15.4304 26.9606 9.21537C26.9606 3.97196 23.5425 0.917195 17.7881 0.917195L17.7872 0.916262ZM14.8575 14.7705C14.1581 14.7705 13.4869 14.7257 12.8456 14.6398L15.2062 5.49981H16.8806C19.7053 5.49981 21.4847 6.92313 21.4847 9.5271C21.4847 12.7219 18.8691 14.7705 14.8584 14.7705H14.8575Z" fill="#00BF6F"/>
<path d="M181.432 14.3543C179.374 13.4517 178.711 12.7919 178.711 12.0975C178.711 11.2295 179.339 10.6742 180.351 10.6742C182.025 10.6742 183.175 12.0975 183.315 13.6599L187.5 12.3401C187.151 9.11084 184.291 6.8886 180.489 6.8886C176.688 6.8886 173.863 9.28444 173.863 12.3747C173.863 14.875 175.607 16.541 178.258 17.6872C179.933 18.4161 180.77 19.0759 180.77 19.9439C180.77 21.02 180.003 21.5408 178.852 21.5408C177.248 21.5408 175.713 20.4993 175.573 18.4161L171.458 19.7358C171.806 23.5204 174.805 25.5 178.607 25.5C182.932 25.5 185.582 23.2432 185.582 19.6667C185.582 17.2709 184.117 15.5349 181.432 14.3543Z" fill="#00BF6F"/>
<path d="M90.5409 12.4092C90.5409 8.86725 88.2394 6.8886 83.9147 6.8886C78.0553 6.8886 73.3819 11.5757 73.3819 17.409C73.3819 22.4434 76.4512 25.4991 81.8222 25.4991C84.9609 25.4991 87.4022 24.8047 89.7741 23.3459L89.46 18.7278C87.3328 20.2557 85.2047 20.9155 82.6237 20.9155C80.3222 20.9155 78.8569 20.1166 78.6131 18.9359C85.7981 18.9359 90.5409 16.6792 90.5409 12.4083V12.4092ZM78.5091 15.0141C79.4156 12.7919 81.5437 11.2295 83.7403 11.2295C84.8166 11.2295 85.38 11.7027 85.38 12.5707C85.38 13.8904 83.1131 15.0141 78.5091 15.0141Z" fill="#00BF6F"/>
<path d="M113.84 7.30579L108.189 17.6181H108.05L107.457 7.30579H102.783L97.3425 17.6181H97.2028L96.959 7.30579H92.2153L92.8781 25.0828H97.8309L103.446 14.736H103.585L104.039 25.0828H108.991L119.036 7.30579H113.84Z" fill="#00BF6F"/>
<path d="M73.5909 8.38192C73.5909 3.8329 70.3819 0.916262 65.4647 0.916262H56.8153L50.5725 25.1173H56.0138L58.0716 17.1309H61.9781L66.3375 25.1173H71.9175L67.1738 16.6456C71.0447 15.5694 73.5909 12.3747 73.5909 8.38192ZM63.4763 12.7564H59.2209L61.1044 5.49981H64.4522C66.7538 5.49981 68.1488 6.61047 68.1488 8.76365C68.1488 11.194 65.9859 12.7564 63.4753 12.7564H63.4763Z" fill="#00BF6F"/>
<path d="M133.928 7.30579L133.405 9.28537C132.15 7.93112 130.232 6.88953 127.232 6.88953C121.652 6.88953 117.117 11.8548 117.117 17.9307C117.117 22.4443 120.012 25.5 124.232 25.5C126.743 25.5 128.662 24.5629 130.022 22.6524H130.231L129.568 25.0828H134.451L139.02 7.30486H133.928L133.928 7.30579ZM130.162 19.2495C129.185 20.4302 127.72 21.2291 126.255 21.2291C123.814 21.2291 122.314 19.7358 122.314 17.3054C122.314 15.743 122.977 14.1807 123.988 13.0691C125.034 11.8884 126.429 11.194 127.929 11.194C130.231 11.194 131.766 12.6873 131.766 14.9096C131.766 16.542 131.103 18.1043 130.162 19.2495Z" fill="#00BF6F"/>
<path d="M169.504 0.916262L167.306 9.28444C166.051 7.93019 164.133 6.8886 161.133 6.8886C155.553 6.8886 151.018 11.8539 151.018 17.9298C151.018 22.4434 153.913 25.4991 158.133 25.4991C160.644 25.4991 162.563 24.5265 163.958 22.5479H164.167L163.469 25.0828H168.352L174.595 0.916262H169.503H169.504ZM164.062 19.2495C163.086 20.4302 161.621 21.2291 160.156 21.2291C157.715 21.2291 156.215 19.7358 156.215 17.3054C156.215 15.743 156.878 14.1807 157.889 13.0691C158.935 11.8884 160.33 11.194 161.83 11.194C164.132 11.194 165.667 12.6873 165.667 14.9096C165.667 16.542 165.004 18.1043 164.062 19.2495Z" fill="#00BF6F"/>
<path d="M149.972 7.02766C148.402 7.02766 147.008 7.86112 146.136 9.31897H145.927L146.484 7.30486H141.602L137.033 25.0828H142.126L144.638 15.3258C145.161 13.2772 146.277 11.9929 147.916 11.9929C148.788 11.9929 149.451 12.3056 149.869 12.8264L152.798 8.31285C152.17 7.51393 151.264 7.0286 149.974 7.0286L149.972 7.02766Z" fill="#00BF6F"/>
</g>
<defs>
<clipPath id="clip0_2318_3034">
<rect width="187.5" height="25" fill="white" transform="translate(0 0.5)"/>
</clipPath>
</defs>
</svg>
